<svg xmlns="http://www.w3.org/2000/svg" data-name="Layer 1" viewBox="0 0 55 68.75" x="0px" y="0px"><title>Untitled-1</title><path d="M52.39,45.44507l-4.87-9.65H7.48l-4.87,9.65a.99527.99527,0,0,0,.89,1.45h48a.99527.99527,0,0,0,.88995-1.45Z"/><path d="M23.557,23.74609a1.079,1.079,0,0,0-1.07813,1.07813V27.418a1.07813,1.07813,0,0,0,2.15625,0V24.82422A1.079,1.079,0,0,0,23.557,23.74609Z"/><path d="M31.02188,14.37109a1.079,1.079,0,0,0-1.07812,1.07813V18.043a1.07813,1.07813,0,0,0,2.15625,0V15.44922A1.079,1.079,0,0,0,31.02188,14.37109Z"/><path d="M23.557,14.37109a1.079,1.079,0,0,0-1.07813,1.07813V18.043a1.07813,1.07813,0,0,0,2.15625,0V15.44922A1.079,1.079,0,0,0,23.557,14.37109Z"/><path d="M31.02188,23.74609a1.079,1.079,0,0,0-1.07812,1.07813V27.418a1.07813,1.07813,0,0,0,2.15625,0V24.82422A1.079,1.079,0,0,0,31.02188,23.74609Z"/><path d="M46.89,9.105a.99658.99658,0,0,0-1-1H9.1a1.003,1.003,0,0,0-1,1V33.795H46.89ZM36.12,14.4751l1.9-1.89014a.981.981,0,0,1,1.09-.22.99339.99339,0,0,1,.61.92v5.92h.42a1,1,0,0,1,0,2H37.3a1,1,0,0,1,0-2h.42v-3.5l-.19.18994a.99581.99581,0,0,1-1.41,0A1.00781,1.00781,0,0,1,36.12,14.4751ZM17.75,30.575H14.91a1,1,0,1,1,0-2h.42v-3.5l-.19.19006a.997.997,0,0,1-1.41-1.41l1.89-1.8999a1.00045,1.00045,0,0,1,1.71.71V28.575h.42a1,1,0,0,1,0,2Zm0-9.36987H14.91a1,1,0,0,1,0-2h.42v-3.5l-.19.18994a.99581.99581,0,0,1-1.41,0,1.00783,1.00783,0,0,1,0-1.41992L15.62,12.585a1.00045,1.00045,0,0,1,1.71.70007v5.92h.42a1,1,0,0,1,0,2Zm8.89,6.21a3.08,3.08,0,0,1-6.16,0V24.825a3.08,3.08,0,0,1,6.16,0Zm0-9.37a3.08,3.08,0,0,1-6.16,0v-2.6a3.08,3.08,0,0,1,6.16,0Zm7.46,9.37a3.08,3.08,0,0,1-6.16,0V24.825a3.08,3.08,0,0,1,6.16,0Zm0-9.37a3.08,3.08,0,0,1-6.16,0v-2.6a3.08,3.08,0,0,1,6.16,0Zm7.46,8.88a3.075,3.075,0,1,1-6.15,0V24.335a3.075,3.075,0,1,1,6.15,0Z"/><path d="M38.48672,23.25342a1.079,1.079,0,0,0-1.07812,1.07812v2.59375a1.07813,1.07813,0,1,0,2.15625,0V24.33154A1.079,1.079,0,0,0,38.48672,23.25342Z"/><text x="0" y="70" fill="#000000" font-size="5px" font-weight="bold" font-family="'Helvetica Neue', Helvetica, Arial-Unicode, Arial, Sans-serif">Created by Graphic Tigers</text><text x="0" y="75" fill="#000000" font-size="5px" font-weight="bold" font-family="'Helvetica Neue', Helvetica, Arial-Unicode, Arial, Sans-serif">from the Noun Project</text></svg>