<svg xmlns:dc="http://purl.org/dc/elements/1.1/" xmlns:cc="http://creativecommons.org/ns#" xmlns:rdf="http://www.w3.org/1999/02/22-rdf-syntax-ns#" xmlns:svg="http://www.w3.org/2000/svg" xmlns="http://www.w3.org/2000/svg" xmlns:sodipodi="http://sodipodi.sourceforge.net/DTD/sodipodi-0.dtd" xmlns:inkscape="http://www.inkscape.org/namespaces/inkscape" version="1.1" x="0px" y="0px" viewBox="0 0 100 125"><g transform="translate(0,-952.36218)"><path style="color:#000000;enable-background:accumulate;" d="m 9,959.36217 c -0.554,0 -1,0.4459 -1,0.9998 l 0,5.9988 c 0,0.5539 0.446,0.9998 1,0.9998 l 82,0 c 0.554,0 1,-0.4459 1,-0.9998 l 0,-5.9988 c 0,-0.5539 -0.446,-0.9998 -1,-0.9998 l -82,0 z m 3,9.998 0,46.99083 c 0,0.5539 0.4922,0.9998 1.0938,0.9998 l 73.8124,0 c 0.6015,0 1.0938,-0.4459 1.0938,-0.9998 l 0,-46.99083 -76,0 z m 41.75,8.0296 c 1.3227,-0.1825 2.5754,1.2223 2.1875,2.4996 l -8,27.99453 c -0.2862,1.0143 -1.4776,1.6727 -2.5,1.406 -1.02,-0.2662 -1.6616,-1.4853 -1.375,-2.4995 l 8,-27.99453 c 0.2043,-0.7642 0.9021,-1.309 1.6875,-1.4061 z m -14.9375,3.9369 c 0.9087,-0.1164 1.8645,0.4754 2.1563,1.3434 0.2919,0.868 -0.1118,1.9187 -0.9063,2.3745 l -13.2813,8.3109 13.2813,8.27963 c 0.8919,0.556 1.2126,1.8581 0.6563,2.7494 -0.5564,0.8917 -1.8896,1.2126 -2.7813,0.6562 l -16,-9.99803 c -1.3464,-0.8701 -1.1567,-2.6936 0,-3.4056 l 16,-9.9981 c 0.2619,-0.1705 0.5643,-0.2783 0.875,-0.3123 z m 22.0937,0 c 0.4052,-0.016 0.8146,0.094 1.1563,0.3123 l 16,9.9981 c 1.1567,0.712 1.341,2.5653 0,3.4056 l -16,9.99803 c -0.8917,0.5564 -2.1937,0.2355 -2.75,-0.6562 -0.5564,-0.8913 -0.267,-2.1934 0.625,-2.7494 l 13.2813,-8.27963 -13.2813,-8.3109 c -0.7389,-0.4391 -1.1229,-1.3869 -0.9063,-2.2182 0.2167,-0.8316 1.0159,-1.4767 1.875,-1.4997 z m -24.25,38.05493 -7.4687,23.3704 A 2.0012949,2.000902 0 1 0 33,1043.9706 l 3.4062,-10.6229 27.2813,0 3.4063,10.6229 a 2.0012889,2.000896 0 0 0 3.8124,-1.2186 l -7.4687,-23.3704 -4.2187,0 3.1874,9.9668 -24.7187,0 3.1875,-9.9668 -4.2188,0 z" fill="#000000" stroke="none" marker="none" visibility="visible" display="inline" overflow="visible"/></g><text x="0" y="115" fill="#000000" font-size="5px" font-weight="bold" font-family="'Helvetica Neue', Helvetica, Arial-Unicode, Arial, Sans-serif">Created by Rockicon</text><text x="0" y="120" fill="#000000" font-size="5px" font-weight="bold" font-family="'Helvetica Neue', Helvetica, Arial-Unicode, Arial, Sans-serif">from the Noun Project</text></svg>